# Blender v2.82 (sub 7) OBJ File: 'InfinityClimb_Character.blend'
# www.blender.org
o Cube
v -0.079999 0.383205 0.079999
v -0.079999 -0.167646 0.079999
v -0.079999 0.383205 -0.079999
v -0.079999 -0.167646 -0.079999
v 0.079999 0.383205 0.079999
v 0.079999 -0.167646 0.079999
v 0.079999 0.383205 -0.079999
v 0.079999 -0.167646 -0.079999
v -0.079999 0.236483 0.079999
v 0.079999 0.236483 -0.079999
v -0.079999 0.236483 -0.079999
v 0.079999 0.236483 0.079999
v -0.079999 0.195963 0.079999
v -0.079999 0.195963 -0.079999
v 0.079999 0.195963 0.079999
v 0.079999 0.195963 -0.079999
v 0.064765 0.195963 -0.064765
v 0.064765 0.236483 -0.064765
v 0.064765 0.236483 0.064765
v -0.064765 0.236483 0.064765
v -0.064765 0.236483 -0.064765
v -0.064765 0.195963 0.064765
v -0.064765 0.195963 -0.064765
v 0.064765 0.195963 0.064765
v -0.111058 0.143338 0.079999
v -0.111058 0.143338 -0.079999
v 0.111058 0.143338 0.079999
v 0.111058 0.143338 -0.079999
v -0.111058 -0.009675 0.079999
v -0.111058 -0.009675 -0.079999
v 0.111058 -0.009675 0.079999
v 0.111058 -0.009675 -0.079999
v 0.111058 0.105085 -0.079999
v -0.111058 0.105085 -0.079999
v -0.111058 0.028578 0.079999
v -0.111058 0.028578 -0.079999
v -0.111058 0.105085 0.079999
v 0.111058 0.028578 0.079999
v -0.111058 0.028578 0.040000
v -0.111058 0.028578 -0.040000
v -0.111058 0.105085 -0.040000
v -0.111058 0.105085 0.040000
v 0.111058 0.105085 0.079999
v 0.111058 0.028578 -0.079999
v 0.111058 0.028578 0.040000
v 0.111058 0.105085 -0.040000
v 0.111058 0.028578 -0.040000
v 0.111058 0.105085 0.040000
v 0.194995 0.112057 0.043560
v 0.194995 0.112057 -0.043560
v 0.194995 0.021606 0.043560
v 0.194995 0.021606 -0.043560
v -0.194995 0.112057 0.043560
v -0.194995 0.112057 -0.043560
v -0.194995 0.021606 -0.043560
v -0.194995 0.021606 0.043560
v -0.162426 0.028578 -0.040000
v -0.162426 0.105085 -0.040000
v -0.162426 0.028578 0.040000
v -0.162426 0.105085 0.040000
v 0.162426 0.105085 0.040000
v 0.162426 0.105085 -0.040000
v 0.162426 0.028578 -0.040000
v 0.162426 0.028578 0.040000
v -0.194995 0.028578 0.040000
v -0.194995 0.028578 -0.040000
v -0.194995 0.105085 -0.040000
v -0.194995 0.105085 0.040000
v 0.194995 0.028578 -0.040000
v 0.194995 0.028578 0.040000
v 0.194995 0.105085 -0.040000
v 0.194995 0.105085 0.040000
v 0.129353 0.105085 0.040000
v -0.129353 0.028578 -0.040000
v -0.129353 0.028578 0.040000
v -0.129353 0.105085 0.040000
v -0.129353 0.105085 -0.040000
v 0.129353 0.105085 -0.040000
v 0.129353 0.028578 -0.040000
v 0.129353 0.028578 0.040000
v 0.129353 0.112057 0.043560
v -0.129353 0.021606 -0.043560
v -0.129353 0.021606 0.043560
v -0.129353 0.112057 0.043560
v -0.129353 0.112057 -0.043560
v 0.129353 0.112057 -0.043560
v 0.129353 0.021606 -0.043560
v 0.129353 0.021606 0.043560
v 0.194995 0.112057 -0.240127
v 0.194995 0.021606 -0.240127
v -0.194995 0.112057 -0.240127
v -0.194995 0.021606 -0.240127
v -0.129353 0.021606 -0.240127
v -0.129353 0.112057 -0.240127
v 0.129353 0.112057 -0.240127
v 0.129353 0.021606 -0.240127
v 0.079999 -0.198416 0.079999
v 0.079999 -0.198416 -0.079999
v -0.079999 -0.198416 0.079999
v -0.079999 -0.198416 -0.079999
v 0.079999 -0.198416 0.000000
v 0.000000 -0.198416 0.079999
v 0.000000 -0.198416 -0.079999
v -0.079999 -0.198416 0.000000
v -0.017323 -0.198416 -0.079999
v 0.094466 -0.386684 0.000000
v 0.094466 -0.386684 -0.079999
v 0.094466 -0.386684 0.079999
v -0.094466 -0.386684 -0.079999
v -0.094466 -0.386684 0.000000
v -0.094466 -0.386684 0.079999
v -0.017323 -0.198416 0.079999
v -0.020456 -0.386684 -0.079999
v -0.020456 -0.386684 0.079999
v -0.020456 -0.386684 0.000000
v 0.017323 -0.198416 0.079999
v 0.017323 -0.198416 -0.079999
v 0.020456 -0.386684 0.079999
v 0.020456 -0.386684 -0.079999
v 0.020456 -0.386684 0.000000
vn 0.0000 1.0000 0.0000
vn 0.0000 0.0000 -1.0000
vn 1.0000 0.0000 0.0000
vn 0.0000 0.0000 1.0000
vn -1.0000 0.0000 0.0000
vn 0.0000 -1.0000 0.0000
vn 0.8612 0.5083 0.0000
vn -0.8612 0.5083 0.0000
vn 0.9812 -0.1929 0.0000
vn -0.9812 -0.1929 0.0000
vn 0.9971 0.0766 0.0000
vn -0.9971 0.0766 0.0000
vn -0.9999 -0.0166 0.0000
vn 0.9999 -0.0166 0.0000
s off
f 5//1 3//1 1//1
f 3//2 10//2 11//2
f 7//3 12//3 10//3
f 2//4 112//4 102//4
f 1//5 11//5 9//5
f 5//4 9//4 12//4
f 14//1 17//1 16//1
f 13//1 23//1 14//1
f 11//6 20//6 9//6
f 10//6 21//6 11//6
f 14//2 16//2 4//2
f 16//7 27//7 28//7
f 13//8 26//8 25//8
f 81//1 50//1 86//1
f 19//4 22//4 24//4
f 20//5 23//5 22//5
f 18//3 24//3 17//3
f 21//2 17//2 23//2
f 12//6 18//6 10//6
f 15//1 22//1 13//1
f 9//6 19//6 12//6
f 16//1 24//1 15//1
f 30//5 29//5 39//5
f 26//5 41//5 42//5
f 48//3 38//3 45//3
f 15//4 13//4 6//4
f 32//9 6//9 8//9
f 29//10 4//10 2//10
f 42//5 35//5 37//5
f 33//3 47//3 44//3
f 55//6 93//6 82//6
f 47//3 45//3 31//3
f 41//5 36//5 40//5
f 27//3 48//3 46//3
f 64//2 73//2 61//2
f 62//4 79//4 63//4
f 60//2 75//2 59//2
f 57//4 77//4 58//4
f 63//1 80//1 64//1
f 58//6 76//6 60//6
f 61//6 78//6 62//6
f 59//1 74//1 57//1
f 41//1 60//1 42//1
f 42//4 59//4 39//4
f 39//6 57//6 40//6
f 40//2 58//2 41//2
f 45//4 61//4 48//4
f 47//6 64//6 45//6
f 46//2 63//2 47//2
f 48//1 62//1 46//1
f 74//3 83//3 82//3
f 66//5 56//5 65//5
f 72//3 69//3 71//3
f 68//5 66//5 65//5
f 79//5 86//5 87//5
f 72//3 51//3 70//3
f 76//3 83//3 75//3
f 79//5 88//5 80//5
f 71//3 49//3 72//3
f 77//3 84//3 76//3
f 52//3 89//3 50//3
f 83//6 55//6 82//6
f 87//6 51//6 88//6
f 84//4 56//4 83//4
f 88//4 49//4 81//4
f 85//1 53//1 84//1
f 73//5 86//5 78//5
f 67//5 55//5 66//5
f 74//3 85//3 77//3
f 68//5 54//5 67//5
f 68//5 56//5 53//5
f 69//3 51//3 52//3
f 69//3 50//3 71//3
f 73//5 88//5 81//5
f 93//2 91//2 94//2
f 95//2 90//2 96//2
f 87//6 90//6 52//6
f 82//3 94//3 85//3
f 85//1 91//1 54//1
f 50//1 95//1 86//1
f 54//5 92//5 55//5
f 86//5 96//5 87//5
f 97//11 106//11 101//11
f 8//2 117//2 103//2
f 6//3 97//3 101//3
f 4//5 100//5 104//5
f 98//2 119//2 117//2
f 104//12 111//12 99//12
f 110//6 113//6 115//6
f 111//6 115//6 114//6
f 100//12 110//12 104//12
f 101//11 107//11 98//11
f 99//4 114//4 112//4
f 100//2 113//2 109//2
f 118//6 106//6 108//6
f 120//6 107//6 106//6
f 97//4 118//4 108//4
f 117//13 120//13 116//13
f 115//14 113//14 105//14
f 103//6 116//6 102//6
f 5//1 7//1 3//1
f 3//2 7//2 10//2
f 7//3 5//3 12//3
f 97//4 6//4 116//4
f 6//4 2//4 102//4
f 116//4 6//4 102//4
f 2//4 99//4 112//4
f 1//5 3//5 11//5
f 5//4 1//4 9//4
f 14//1 23//1 17//1
f 13//1 22//1 23//1
f 11//6 21//6 20//6
f 10//6 18//6 21//6
f 4//2 30//2 36//2
f 34//2 26//2 14//2
f 4//2 36//2 14//2
f 36//2 34//2 14//2
f 32//2 8//2 44//2
f 8//2 4//2 16//2
f 44//2 8//2 16//2
f 28//2 33//2 16//2
f 33//2 44//2 16//2
f 16//7 15//7 27//7
f 13//8 14//8 26//8
f 81//1 49//1 50//1
f 19//4 20//4 22//4
f 20//5 21//5 23//5
f 18//3 19//3 24//3
f 21//2 18//2 17//2
f 12//6 19//6 18//6
f 15//1 24//1 22//1
f 9//6 20//6 19//6
f 16//1 17//1 24//1
f 35//5 39//5 29//5
f 39//5 40//5 30//5
f 40//5 36//5 30//5
f 37//5 25//5 42//5
f 25//5 26//5 42//5
f 26//5 34//5 41//5
f 48//3 43//3 38//3
f 6//4 31//4 38//4
f 43//4 27//4 15//4
f 6//4 38//4 15//4
f 38//4 43//4 15//4
f 29//4 2//4 35//4
f 2//4 6//4 13//4
f 35//4 2//4 13//4
f 25//4 37//4 13//4
f 37//4 35//4 13//4
f 32//9 31//9 6//9
f 29//10 30//10 4//10
f 42//5 39//5 35//5
f 33//3 46//3 47//3
f 55//6 92//6 93//6
f 45//3 38//3 31//3
f 31//3 32//3 47//3
f 32//3 44//3 47//3
f 41//5 34//5 36//5
f 33//3 28//3 46//3
f 28//3 27//3 46//3
f 27//3 43//3 48//3
f 64//2 80//2 73//2
f 62//4 78//4 79//4
f 60//2 76//2 75//2
f 57//4 74//4 77//4
f 63//1 79//1 80//1
f 58//6 77//6 76//6
f 61//6 73//6 78//6
f 59//1 75//1 74//1
f 41//1 58//1 60//1
f 42//4 60//4 59//4
f 39//6 59//6 57//6
f 40//2 57//2 58//2
f 45//4 64//4 61//4
f 47//6 63//6 64//6
f 46//2 62//2 63//2
f 48//1 61//1 62//1
f 74//3 75//3 83//3
f 66//5 55//5 56//5
f 72//3 70//3 69//3
f 68//5 67//5 66//5
f 79//5 78//5 86//5
f 72//3 49//3 51//3
f 76//3 84//3 83//3
f 79//5 87//5 88//5
f 71//3 50//3 49//3
f 77//3 85//3 84//3
f 52//3 90//3 89//3
f 83//6 56//6 55//6
f 87//6 52//6 51//6
f 84//4 53//4 56//4
f 88//4 51//4 49//4
f 85//1 54//1 53//1
f 73//5 81//5 86//5
f 67//5 54//5 55//5
f 74//3 82//3 85//3
f 68//5 53//5 54//5
f 68//5 65//5 56//5
f 69//3 70//3 51//3
f 69//3 52//3 50//3
f 73//5 80//5 88//5
f 93//2 92//2 91//2
f 95//2 89//2 90//2
f 87//6 96//6 90//6
f 82//3 93//3 94//3
f 85//1 94//1 91//1
f 50//1 89//1 95//1
f 54//5 91//5 92//5
f 86//5 95//5 96//5
f 97//11 108//11 106//11
f 100//2 4//2 105//2
f 4//2 8//2 103//2
f 105//2 4//2 103//2
f 8//2 98//2 117//2
f 98//3 8//3 101//3
f 8//3 6//3 101//3
f 99//5 2//5 104//5
f 2//5 4//5 104//5
f 98//2 107//2 119//2
f 104//12 110//12 111//12
f 110//6 109//6 113//6
f 111//6 110//6 115//6
f 100//12 109//12 110//12
f 101//11 106//11 107//11
f 99//4 111//4 114//4
f 100//2 105//2 113//2
f 118//6 120//6 106//6
f 120//6 119//6 107//6
f 97//4 116//4 118//4
f 119//13 120//13 117//13
f 120//13 118//13 116//13
f 105//14 112//14 115//14
f 112//14 114//14 115//14
f 102//6 112//6 105//6
f 103//6 117//6 116//6
f 102//6 105//6 103//6
