# Blender v2.82 (sub 7) OBJ File: 'stairs.blend'
# www.blender.org
o Cube
v 1.000000 -1.000000 -1.000000
v 1.000000 -1.000000 1.000000
v -1.000000 1.000000 -1.000000
v -1.000000 -1.000000 -1.000000
v -1.000000 1.000000 1.000000
v -1.000000 -1.000000 1.000000
v 1.000000 -0.714286 1.000000
v 1.000000 -0.714286 -1.000000
v -0.714286 1.000000 1.000000
v -0.714286 1.000000 -1.000000
v 0.714286 -0.714286 1.000000
v 0.714286 -0.428571 1.000000
v 0.428571 -0.428571 1.000000
v 0.428571 -0.142857 1.000000
v 0.142857 -0.142857 1.000000
v 0.142857 0.142857 1.000000
v -0.142857 0.142857 1.000000
v -0.142857 0.428571 1.000000
v -0.428571 0.428571 1.000000
v -0.428571 0.714286 1.000000
v -0.714286 0.714286 1.000000
v 0.714286 -0.714286 -1.000000
v 0.428571 -0.428571 -1.000000
v 0.714286 -0.428571 -1.000000
v 0.142857 -0.142857 -1.000000
v 0.428571 -0.142857 -1.000000
v -0.142857 0.142857 -1.000000
v 0.142857 0.142857 -1.000000
v -0.428571 0.428571 -1.000000
v -0.142857 0.428571 -1.000000
v -0.714286 0.714286 -1.000000
v -0.428571 0.714286 -1.000000
vn 1.0000 0.0000 0.0000
vn -1.0000 0.0000 0.0000
vn 0.0000 1.0000 0.0000
vn -0.0000 0.0000 -1.0000
vn -0.0000 0.0000 1.0000
vn 0.0000 -1.0000 0.0000
s off
f 7//1 1//1 8//1
f 5//2 4//2 6//2
f 26//3 15//3 14//3
f 28//3 17//3 16//3
f 18//3 29//3 19//3
f 20//3 31//3 21//3
f 4//4 27//4 25//4
f 10//1 21//1 31//1
f 29//1 20//1 19//1
f 27//1 18//1 17//1
f 16//1 25//1 28//1
f 14//1 23//1 26//1
f 12//1 22//1 24//1
f 9//3 3//3 5//3
f 6//5 15//5 17//5
f 8//3 11//3 7//3
f 24//3 13//3 12//3
f 1//6 6//6 4//6
f 7//1 2//1 1//1
f 5//2 3//2 4//2
f 26//3 25//3 15//3
f 28//3 27//3 17//3
f 18//3 30//3 29//3
f 20//3 32//3 31//3
f 4//4 3//4 31//4
f 3//4 10//4 31//4
f 31//4 32//4 29//4
f 8//4 1//4 22//4
f 1//4 4//4 22//4
f 23//4 24//4 22//4
f 4//4 31//4 29//4
f 29//4 30//4 27//4
f 27//4 28//4 25//4
f 25//4 26//4 23//4
f 23//4 22//4 4//4
f 4//4 29//4 27//4
f 25//4 23//4 4//4
f 10//1 9//1 21//1
f 29//1 32//1 20//1
f 27//1 30//1 18//1
f 16//1 15//1 25//1
f 14//1 13//1 23//1
f 12//1 11//1 22//1
f 9//3 10//3 3//3
f 6//5 2//5 11//5
f 2//5 7//5 11//5
f 11//5 12//5 13//5
f 9//5 5//5 21//5
f 5//5 6//5 21//5
f 19//5 20//5 21//5
f 6//5 11//5 13//5
f 13//5 14//5 15//5
f 15//5 16//5 17//5
f 17//5 18//5 19//5
f 19//5 21//5 6//5
f 6//5 13//5 15//5
f 17//5 19//5 6//5
f 8//3 22//3 11//3
f 24//3 23//3 13//3
f 1//6 2//6 6//6
